<svg xmlns="http://www.w3.org/2000/svg" viewBox="0 0 400 300" width="400" height="300" role="img" aria-label="중식">
  <rect width="400" height="300" fill="#F6E9E6"/>
  <path d="M132 116h136a8 8 0 0 1 8 8c0 38-30 68-68 68h-16c-38 0-68-30-68-68a8 8 0 0 1 8-8z" fill="#D9A79C"/>
  <path d="M146 128h108a6 6 0 0 1 6 6c0 30-24 54-54 54h-12c-30 0-54-24-54-54a6 6 0 0 1 6-6z" fill="#FBF3F1"/>
  <rect x="150" y="196" width="100" height="10" rx="5" fill="#C98C7E"/>
  <rect x="236" y="70" width="8" height="52" rx="4" transform="rotate(22 240 96)" fill="#C98C7E"/>
  <rect x="256" y="70" width="8" height="52" rx="4" transform="rotate(22 260 96)" fill="#C98C7E"/>
  <text x="200" y="258" text-anchor="middle" font-family="'Apple SD Gothic Neo','Malgun Gothic',sans-serif" font-size="18" fill="#A87C72">중식</text>
</svg>
